# Blender v2.91.0 OBJ File: 'lapin_Flag_Work.blend'
# www.blender.org
o Base_Cylinder
v 0.000000 7.268300 0.000000
v 0.000000 -0.001890 -0.284506
v 0.000000 7.268300 -0.284506
v 0.201176 -0.001890 -0.201176
v 0.201176 7.268300 -0.201176
v 0.284506 -0.001890 0.000000
v 0.284506 7.268300 0.000000
v 0.201176 -0.001890 0.201176
v 0.201176 7.268300 0.201176
v -0.000000 -0.001890 0.284506
v -0.000000 7.268300 0.284506
v -0.201176 -0.001890 0.201176
v -0.201176 7.268300 0.201176
v -0.284506 -0.001890 -0.000000
v -0.284506 7.268300 -0.000000
v -0.201176 -0.001890 -0.201176
v -0.201176 7.268300 -0.201176
v 0.000000 7.188141 -0.284506
v 0.201176 7.188141 -0.201176
v 0.284506 7.188141 0.000000
v 0.201176 7.188141 0.201176
v -0.000000 7.188141 0.284506
v -0.201176 7.188141 0.201176
v -0.284506 7.188141 -0.000000
v -0.201176 7.188141 -0.201176
vt 0.250000 0.250000
vt 0.419706 0.419706
vt 0.250000 0.490000
vt 1.000000 1.000000
vt 0.875000 0.994487
vt 1.000000 0.994487
vt 0.490000 0.250000
vt 0.875000 1.000000
vt 0.750000 0.994487
vt 0.419706 0.080294
vt 0.750000 1.000000
vt 0.625000 0.994487
vt 0.250000 0.010000
vt 0.625000 1.000000
vt 0.500000 0.994487
vt 0.080294 0.080294
vt 0.500000 1.000000
vt 0.375000 0.994487
vt 0.010000 0.250000
vt 0.375000 1.000000
vt 0.250000 0.994487
vt 0.080294 0.419706
vt 0.250000 1.000000
vt 0.125000 0.994487
vt 0.125000 1.000000
vt 0.000000 0.994487
vt 0.000000 0.500000
vt 0.125000 0.500000
vt 0.250000 0.500000
vt 0.375000 0.500000
vt 0.500000 0.500000
vt 0.625000 0.500000
vt 0.750000 0.500000
vt 0.875000 0.500000
vt 1.000000 0.500000
vt 0.000000 1.000000
vn 0.0000 1.0000 0.0000
vn 0.5490 0.6302 -0.5490
vn 0.0000 0.6302 -0.7764
vn 0.7071 0.0000 -0.7071
vn 0.0000 0.0000 -1.0000
vn 0.7764 0.6302 0.0000
vn 1.0000 0.0000 0.0000
vn 0.5490 0.6302 0.5490
vn 0.7071 0.0000 0.7071
vn 0.0000 0.6302 0.7764
vn 0.0000 0.0000 1.0000
vn -0.5490 0.6302 0.5490
vn -0.7071 0.0000 0.7071
vn -0.7764 0.6302 0.0000
vn -1.0000 0.0000 0.0000
vn -0.5490 0.6302 -0.5490
vn -0.7071 0.0000 -0.7071
s 1
f 1/1/1 5/2/2 3/3/3
f 3/4/3 19/5/4 18/6/5
f 1/1/1 7/7/6 5/2/2
f 5/8/2 20/9/7 19/5/4
f 1/1/1 9/10/8 7/7/6
f 7/11/6 21/12/9 20/9/7
f 1/1/1 11/13/10 9/10/8
f 9/14/8 22/15/11 21/12/9
f 1/1/1 13/16/12 11/13/10
f 11/17/10 23/18/13 22/15/11
f 1/1/1 15/19/14 13/16/12
f 13/20/12 24/21/15 23/18/13
f 1/1/1 17/22/16 15/19/14
f 15/23/14 25/24/17 24/21/15
f 1/1/1 3/3/3 17/22/16
f 17/25/16 18/26/5 25/24/17
f 25/24/17 2/27/5 16/28/17
f 24/21/15 16/28/17 14/29/15
f 23/18/13 14/29/15 12/30/13
f 22/15/11 12/30/13 10/31/11
f 21/12/9 10/31/11 8/32/9
f 20/9/7 8/32/9 6/33/7
f 19/5/4 6/33/7 4/34/4
f 18/6/5 4/34/4 2/35/5
f 3/4/3 5/8/2 19/5/4
f 5/8/2 7/11/6 20/9/7
f 7/11/6 9/14/8 21/12/9
f 9/14/8 11/17/10 22/15/11
f 11/17/10 13/20/12 23/18/13
f 13/20/12 15/23/14 24/21/15
f 15/23/14 17/25/16 25/24/17
f 17/25/16 3/36/3 18/26/5
f 25/24/17 18/26/5 2/27/5
f 24/21/15 25/24/17 16/28/17
f 23/18/13 24/21/15 14/29/15
f 22/15/11 23/18/13 12/30/13
f 21/12/9 22/15/11 10/31/11
f 20/9/7 21/12/9 8/32/9
f 19/5/4 20/9/7 6/33/7
f 18/6/5 19/5/4 4/34/4
o Flag_Plane
v -0.000000 7.201744 -0.115385
v 0.000000 4.970391 -0.115385
v 0.000000 6.177021 -3.013579
vt 0.543038 0.068428
vt 0.902275 0.068428
vt 0.902275 0.427665
vn 1.0000 0.0000 0.0000
s off
f 26/37/18 27/38/18 28/39/18
o Flag.001_Plane.001
v 0.000000 7.201744 -0.115385
v -0.000000 4.970391 -0.115385
v -0.000000 6.177021 -3.013579
vt 0.543038 0.068428
vt 0.902275 0.427665
vt 0.902275 0.068428
vn -1.0000 0.0000 0.0000
s off
f 29/40/19 31/41/19 30/42/19
